<?xml version="1.0" encoding="UTF-8"?>
<svg id="Calque_1" data-name="Calque 1" xmlns="http://www.w3.org/2000/svg" viewBox="0 0 520.28 123.64">
  <defs>
    <style>
      .cls-1 {
        fill: #fff;
      }

      .cls-2 {
        fill: #b326ff;
      }
    </style>
  </defs>
  <g>
    <path class="cls-1" d="m490.18,21.35l-.02-.02-.25-.31c-10.6-13.04-30.11-15.71-44.4-6.09l-.3.21c-14.68,10.08-19.13,30.15-9.85,44.9,4.71,7.45,12.1,12.56,20.85,14.38,8.95,1.84,18.46-.08,26.1-5.33,14.36-9.85,18.96-29.12,10.5-43.84l-.07-.1-4.95,3.4.07.1c6.99,12.69,2.5,28.7-10.17,36.48-12.14,7.38-28.04,4.42-36.21-6.73-4.26-5.83-5.94-12.98-4.71-20.19,1.26-7.45,5.46-13.96,11.78-18.3,11.64-7.99,27.66-5.99,36.44,4.56l.21.26.02.02,4.95-3.4Z"/>
    <path class="cls-1" d="m481.54,27.28l-.02-.02-.27-.29c-7.55-8.65-20.56-10.12-30.24-3.47-5.55,3.81-9.19,9.75-10.01,16.35-.83,6.42,1.08,12.62,5.33,17.46,6.09,6.95,18.86,9.35,27.33,5.1.99-.53,1.96-1.09,2.86-1.7,4.3-2.95,7.48-7.18,9.08-12.16,1.87-5.86,1.37-12.03-1.42-17.32l-.06-.14-4.98,3.42.07.1c3.95,8.31.22,18.4-8.26,22.62-6.76,3.32-15.23,1.7-20.08-3.82-3.17-3.61-4.57-8.21-3.98-12.94.63-4.9,3.32-9.3,7.44-12.14,6.94-4.76,16.41-3.87,22.03,2.12l.22.21.02.02,4.95-3.4Z"/>
    <g>
      <path class="cls-1" d="m507.44,16.44l-5.15-.89,1.03-5.19c.14-.69,0-1.38-.39-1.95-.39-.57-.99-.95-1.68-1.07-1.41-.25-2.79.7-3.07,2.1l-2.06,10.33,10.37,1.79c.68.12,1.38-.03,1.96-.43.63-.43,1.05-1.11,1.14-1.86.17-1.35-.78-2.6-2.17-2.84Z"/>
      <path class="cls-1" d="m518.09,9.13l-5.15-.89,1.03-5.19c.14-.69,0-1.38-.39-1.95-.39-.57-.99-.95-1.68-1.07-1.41-.25-2.79.7-3.07,2.11l-2.06,10.33,10.38,1.79c.69.12,1.38-.03,1.96-.43.63-.43,1.04-1.11,1.14-1.86.17-1.35-.79-2.6-2.17-2.83Z"/>
    </g>
    <rect class="cls-1" x="476.06" y="28.95" width="6.01" height=".03" transform="translate(67.7 276.2) rotate(-34.47)"/>
    <rect class="cls-1" x="484.69" y="23.03" width="6.01" height=".03" transform="translate(72.57 280.04) rotate(-34.47)"/>
  </g>
  <path class="cls-1" d="m102.69,99.98h-39.51c1.88,7.3,8.76,11.68,16.37,11.68,6.67,0,11.37-2.5,14.7-5.84l5.73,10.63c-4.69,4.27-11.99,7.19-21.06,7.19-16.99,0-29.3-11.57-29.3-27.42s11.89-27.42,27.32-27.42,25.96,11.05,25.96,26.79c0,1.15-.1,3.02-.21,4.38Zm-39.3-9.9h26.48c-.94-6.36-5.94-10.43-12.41-10.43-6.99,0-12.2,3.75-14.08,10.43Z"/>
  <path class="cls-1" d="m164.56,69.85v52.75h-13.97l.73-4.69h-.42c-3.23,3.34-7.92,5.73-14.39,5.73-14.7,0-26.9-11.68-26.9-27.42s12.2-27.42,26.9-27.42c6.46,0,11.15,2.4,14.39,5.73h.42l-.73-4.69h13.97Zm-13.76,34.4v-16.06c-2.5-4.48-6.99-6.98-12.72-6.98-8.86,0-14.7,6.25-14.7,15.01s5.84,15.01,14.7,15.01c5.73,0,10.22-2.5,12.72-6.99Z"/>
  <path class="cls-1" d="m239.87,68.83c-8.01,0-13.62,3.64-16.95,9.36-3.43-5.88-9.62-9.36-17.52-9.36-6.19,0-11.08,2.24-14.41,5.88h-.31l.73-4.84h-13.83v52.73h13.52l.1-33.8c2.03-4.52,5.82-7.54,10.97-7.7,5.67-.16,10.3,4.52,10.3,10.24v31.25h13.68v-34.74c2.13-4.11,5.88-6.71,10.76-6.76,5.57-.05,9.98,4.68,9.98,10.24v8.32c0,3.22.47,4.73,1.61,5.15h.05l8.68-26.78c-3.43-5.77-9.57-9.2-17.37-9.2Z"/>
  <path class="cls-1" d="m280.48,90.47c-7.49-1.56-9.88-3.02-9.88-6.14,0-2.81,2.39-4.47,6.76-4.47s8.84,1.77,12.27,4.78l5.35-10.5c-4.58-3.48-10.45-5.3-17.11-5.3-1.77,0-3.49.1-5.05.42-.21,0-.36,0-.52.05l-8.73,27.56c.05.05.1.1.21.16,2.65,1.77,6.09,3.22,10.3,4.21,6.71,1.66,9.2,3.33,9.2,6.45s-2.7,4.99-7.54,4.99-11.39-2.76-15.03-6.19c-.05,0-.1-.05-.15-.1l-3.8,12.01s.05,0,.05.05c5.36,3.38,11.65,5.2,18.57,5.2,13,0,21.27-6.45,21.27-16.69,0-8.74-5.77-14.25-16.17-16.48Z"/>
  <path class="cls-1" d="m303.99,90.07h13.66v32.53h-13.66v-32.53Z"/>
  <path class="cls-1" d="m432.59,99.98h-39.51c1.88,7.3,8.76,11.68,16.37,11.68,6.67,0,11.37-2.5,14.7-5.84l5.73,10.63c-4.69,4.27-11.99,7.19-21.06,7.19-16.99,0-29.3-11.57-29.3-27.42s11.89-27.42,27.32-27.42,25.96,11.05,25.96,26.79c0,1.15-.1,3.02-.21,4.38Zm-39.3-9.9h26.48c-.94-6.36-5.94-10.43-12.41-10.43-6.99,0-12.2,3.75-14.08,10.43Z"/>
  <path class="cls-1" d="m348.44,70.57h-20.22v52h20.22c15.25,0,24-9.52,24-26.11s-8.75-25.9-24-25.9Zm10.96,25.9c0,9.5-3.59,14.12-10.96,14.12h-7.31v-28.03h7.31c7.27,0,10.96,4.68,10.96,13.91Z"/>
  <path class="cls-2" d="m303.64,75.82c0-4.01,3.17-6.93,7.1-7.01,3.92-.08,7.26,2.92,7.26,7.01s-3.26,7.18-7.26,7.18-7.1-3.01-7.1-7.18Z"/>
  <path class="cls-1" d="m38.43,106.64c-2.6,2.24-4.78,3.28-8.01,3.28-4.42,0-8.06-2.29-8.06-8.58v-12.22h18.35v-11.7h-18.35v-13.99h-13.16v13.99H3.69l-3.69,11.7h8.84v12.84c0,12.64,8.01,20.12,20.59,20.12,5.67,0,10.14-1.56,14.51-5.1l-5.51-10.35Z"/>
  <path class="cls-1" d="m260.57,106.38c.05.05.1.1.15.1l-3.9,11.96c0-.05-.05-.05-.05-.05l3.8-12.01Z"/>
  <path class="cls-1" d="m272.84,69.25l-9.05,27.77c-.1-.05-.15-.1-.21-.16l8.73-27.56c.16-.05.31-.05.52-.05Z"/>
  <path class="cls-2" d="m473.81,41.19l2.93-.11c.05,3.96-1.84,7.93-5.4,10.37-5.85,4.01-13.9,2.41-17.44-3.7-2.93-5.02-1.66-11.6,2.93-15.41,3.69-3.05,8.53-3.62,12.53-2.01l-1.15,2.69-.9,2.05-2.84,6.53,7.11-.31,2.23-.11Z"/>
</svg>