<?xml version="1.0" standalone="no"?>
<!DOCTYPE svg PUBLIC "-//W3C//DTD SVG 20010904//EN"
 "http://www.w3.org/TR/2001/REC-SVG-20010904/DTD/svg10.dtd">
<svg version="1.0" xmlns="http://www.w3.org/2000/svg"
 width="720.000000pt" height="720.000000pt" viewBox="0 0 720.000000 720.000000"
 preserveAspectRatio="xMidYMid meet">
<metadata>
Created by potrace 1.14, written by Peter Selinger 2001-2017
</metadata>
<g transform="translate(0.000000,720.000000) scale(0.100000,-0.100000)"
fill="#000000" stroke="none">
<path d="M6401 6589 c-68 -36 -117 -105 -126 -177 -5 -40 -12 -73 -45 -237
-17 -82 -33 -161 -36 -175 -2 -14 -7 -38 -11 -55 -4 -16 -6 -33 -5 -37 1 -4
-2 -18 -7 -31 -5 -13 -12 -41 -15 -63 -3 -21 -13 -74 -23 -117 -9 -42 -14 -80
-11 -82 6 -6 32 -12 88 -21 49 -7 81 -13 106 -18 12 -2 37 -7 55 -10 19 -3 43
-7 54 -10 18 -3 59 -10 140 -22 17 -3 37 -7 45 -9 8 -2 33 -6 55 -10 22 -3 92
-15 155 -27 189 -34 237 -29 310 34 84 73 89 210 12 291 -28 29 -73 56 -107
63 -11 2 -33 7 -50 9 -74 13 -143 25 -175 30 -19 3 -62 11 -95 17 -33 6 -69
12 -80 13 -25 2 -25 6 10 175 15 74 29 146 31 160 2 14 9 45 15 70 23 104 -17
192 -111 240 -47 23 -135 23 -179 -1z"/>
<path d="M5575 6013 c-35 -10 -63 -28 -92 -59 -44 -46 -49 -61 -93 -289 -6
-27 -13 -61 -16 -75 -3 -14 -7 -36 -9 -50 -2 -14 -7 -36 -10 -50 -3 -14 -7
-36 -10 -50 -3 -14 -7 -36 -10 -50 -3 -14 -10 -47 -15 -75 -13 -72 -20 -104
-31 -155 -6 -25 -12 -56 -14 -70 -3 -14 -6 -35 -9 -47 -4 -19 0 -23 20 -24 13
-1 27 -2 32 -3 4 -1 30 -6 57 -11 28 -4 55 -9 60 -11 6 -1 28 -5 50 -8 22 -4
81 -14 130 -22 50 -9 99 -17 110 -19 35 -5 149 -25 175 -30 14 -3 43 -8 65
-10 22 -3 47 -8 55 -10 15 -5 93 -16 116 -18 35 -2 105 29 138 61 94 88 91
223 -8 310 -31 27 -85 46 -171 58 -26 3 -92 15 -119 20 -11 2 -48 9 -81 15
-33 5 -69 12 -80 14 -11 2 -28 4 -37 4 -20 1 -19 18 6 138 9 40 18 87 21 105
3 18 13 67 22 108 26 126 15 196 -41 252 -57 56 -133 74 -211 51z"/>
<path d="M2587 5874 c-1 -1 -36 -5 -77 -8 -128 -11 -188 -18 -250 -31 -13 -2
-40 -7 -60 -10 -19 -3 -80 -17 -135 -31 -55 -14 -111 -27 -124 -30 -14 -3 -29
-8 -35 -12 -6 -4 -13 -7 -16 -7 -17 -2 -117 -39 -127 -48 -7 -5 -13 -6 -13 -1
0 4 -5 3 -12 -4 -7 -7 -17 -12 -24 -12 -6 0 -38 -12 -70 -27 -33 -15 -61 -27
-64 -28 -16 -3 -188 -95 -260 -138 -71 -43 -176 -113 -215 -144 -6 -4 -28 -21
-50 -38 -22 -16 -51 -39 -65 -51 -181 -156 -292 -269 -412 -424 -67 -87 -178
-246 -178 -256 0 -3 -8 -18 -19 -32 -72 -104 -239 -483 -266 -605 -2 -12 -13
-53 -24 -92 -23 -77 -60 -258 -66 -320 -2 -22 -8 -71 -12 -110 -16 -137 -9
-482 11 -605 3 -14 7 -43 10 -65 45 -314 175 -661 358 -952 23 -38 46 -72 50
-78 5 -5 32 -42 61 -81 28 -39 70 -93 92 -120 50 -62 269 -281 313 -314 19
-14 50 -40 70 -57 20 -18 40 -33 43 -33 5 0 22 -13 66 -50 7 -5 15 -10 18 -10
3 0 11 -5 18 -10 25 -22 170 -109 235 -141 37 -19 70 -38 73 -42 3 -5 8 -8 10
-7 2 2 34 -11 71 -28 37 -17 107 -45 155 -62 48 -17 95 -34 103 -37 17 -7 26
-9 55 -17 11 -3 60 -16 108 -30 48 -14 102 -27 120 -30 18 -3 41 -7 52 -10 42
-8 162 -26 220 -33 132 -15 590 -6 655 12 8 3 31 7 50 9 60 8 115 18 121 22 3
2 21 6 40 9 98 17 318 85 432 134 25 11 48 17 51 14 3 -4 6 -1 6 5 0 7 7 12
14 12 8 0 49 18 90 39 42 22 76 37 76 34 0 -4 8 0 18 8 9 8 42 28 72 44 53 28
220 133 230 145 3 3 19 14 35 24 17 11 39 27 50 37 11 10 52 43 90 74 140 113
354 337 435 455 8 13 20 28 25 34 76 85 297 484 320 579 4 15 11 27 16 27 5 0
8 3 7 8 -2 10 13 65 22 77 4 6 11 26 15 45 4 19 11 40 15 45 5 6 9 13 9 18 1
4 1 8 2 10 0 1 3 15 5 32 3 16 10 35 16 42 6 7 8 13 5 13 -3 0 1 23 9 52 9 28
17 59 19 67 1 9 6 36 11 61 4 25 8 47 9 50 1 3 5 32 9 65 5 33 10 69 12 80 29
154 21 553 -15 752 -16 85 -20 103 -25 121 -3 9 -8 31 -11 48 -17 106 -131
426 -185 524 -5 8 -25 48 -46 88 -21 39 -40 72 -43 72 -4 0 -24 -13 -46 -28
-22 -15 -105 -72 -185 -126 -80 -55 -149 -102 -154 -107 -4 -4 12 -49 37 -101
98 -203 148 -355 186 -565 43 -239 45 -472 6 -728 -2 -11 -15 -72 -30 -135
-14 -63 -27 -119 -28 -125 -2 -5 -6 -15 -9 -21 -4 -6 -9 -22 -12 -36 -14 -81
-161 -389 -248 -523 -29 -44 -56 -81 -60 -83 -4 -2 -8 -8 -8 -13 0 -5 -6 -17
-14 -26 -8 -10 -38 -47 -68 -83 -65 -81 -224 -241 -303 -306 -33 -27 -68 -57
-79 -66 -11 -10 -23 -18 -27 -18 -5 0 -59 -39 -96 -70 -7 -5 -28 -17 -47 -27
-20 -9 -36 -20 -36 -25 0 -4 -5 -8 -11 -8 -7 0 -33 -13 -58 -28 -69 -42 -234
-116 -340 -152 -300 -103 -598 -141 -916 -117 -98 7 -252 29 -297 43 -10 3
-30 7 -45 10 -120 21 -346 105 -503 188 -41 21 -85 44 -97 50 -13 6 -23 14
-23 19 0 4 -7 7 -15 7 -8 0 -15 4 -15 9 0 5 -8 11 -18 14 -63 17 -398 313
-482 425 -14 18 -33 43 -43 55 -16 19 -55 76 -147 217 -8 14 -29 52 -45 85
-17 33 -34 63 -40 67 -5 4 -6 8 -1 8 5 0 4 6 -2 13 -21 25 -129 316 -122 329
1 2 -3 15 -9 31 -6 15 -13 38 -15 50 -29 141 -35 178 -40 248 -2 20 -6 41 -8
45 -7 12 -2 390 6 434 3 19 8 55 11 80 13 109 73 341 119 461 46 117 140 309
183 371 18 26 33 50 33 54 0 7 128 179 171 229 41 47 192 198 240 240 54 47
246 190 276 206 16 8 43 24 61 36 121 80 485 225 635 252 32 6 61 13 65 15 4
3 35 8 67 11 33 4 62 9 65 10 26 15 404 24 510 12 25 -3 70 -8 100 -12 30 -3
62 -8 70 -10 8 -2 29 -7 45 -10 17 -2 41 -7 55 -10 14 -3 36 -8 50 -11 47 -9
255 -76 268 -86 6 -6 12 -8 12 -5 0 16 341 -155 348 -175 2 -4 8 -8 13 -8 14
0 130 -82 214 -151 80 -65 179 -161 247 -239 l47 -53 68 45 c111 75 314 216
320 222 6 6 -27 52 -78 107 -19 20 -41 45 -50 55 -46 54 -218 211 -289 264
-18 14 -38 30 -44 35 -22 21 -197 135 -206 135 -6 0 -10 3 -10 8 0 4 -10 12
-23 18 -12 6 -71 36 -132 67 -60 31 -135 67 -165 80 -87 38 -326 117 -400 132
-8 2 -44 10 -80 18 -66 16 -119 25 -231 41 -105 14 -471 30 -482 20z"/>
<path d="M2568 5056 c-1 -2 -30 -6 -63 -10 -78 -8 -123 -14 -144 -20 -9 -3
-32 -8 -51 -12 -45 -8 -65 -12 -65 -14 0 -1 -9 -3 -21 -5 -51 -10 -215 -70
-300 -111 -341 -161 -598 -385 -800 -696 -119 -182 -227 -444 -259 -628 -3
-19 -10 -51 -14 -71 -4 -19 -8 -52 -7 -72 1 -20 -1 -37 -4 -37 -18 0 -15 -333
5 -460 10 -65 17 -106 21 -111 2 -3 6 -21 9 -40 3 -19 22 -81 41 -139 84 -252
230 -492 413 -678 61 -61 185 -162 200 -162 6 0 11 -4 11 -9 0 -4 20 -19 45
-32 25 -13 45 -27 45 -30 0 -3 16 -11 35 -19 19 -8 35 -17 35 -22 0 -4 4 -8 9
-8 5 0 48 -18 95 -40 77 -36 309 -119 346 -124 8 -1 26 -5 40 -9 14 -4 36 -9
50 -11 14 -3 48 -9 75 -15 121 -24 405 -44 405 -28 0 4 8 3 19 -2 10 -6 20 -8
23 -6 2 2 40 7 84 10 43 3 88 7 99 9 11 2 40 7 65 11 148 23 315 77 451 144
305 153 589 408 756 681 75 123 163 300 179 360 2 8 20 68 39 133 71 240 91
553 49 787 -2 14 -6 39 -9 55 -28 152 -150 484 -179 485 -4 0 -95 -60 -201
-132 l-193 -133 15 -35 c44 -100 89 -250 98 -328 3 -26 8 -60 10 -77 6 -41 7
-249 1 -266 -3 -8 -7 -37 -10 -66 -3 -29 -13 -78 -22 -110 -8 -32 -17 -67 -19
-78 -3 -11 -16 -49 -30 -84 -14 -36 -25 -70 -25 -77 0 -7 -3 -14 -7 -16 -5 -1
-21 -30 -38 -63 -31 -63 -117 -199 -142 -225 -7 -8 -23 -26 -34 -40 -40 -49
-96 -106 -153 -155 -70 -61 -205 -155 -222 -155 -7 0 -14 -4 -16 -8 -9 -22
-247 -120 -328 -135 -14 -3 -36 -8 -50 -11 -140 -33 -403 -39 -521 -12 -13 3
-35 8 -49 10 -177 28 -426 146 -580 274 -111 93 -270 276 -270 312 0 5 -4 10
-8 10 -12 0 -96 172 -126 256 -71 203 -89 445 -51 674 8 47 43 180 54 205 5
11 22 52 37 90 15 39 36 81 46 94 10 13 18 30 18 38 0 8 5 19 10 26 6 7 38 52
73 101 82 118 227 261 346 341 53 36 102 65 109 65 6 0 12 4 12 9 0 23 380
160 413 148 6 -2 20 0 29 4 48 25 349 27 458 4 14 -3 36 -8 50 -10 67 -11 221
-60 275 -87 22 -11 47 -24 56 -28 69 -34 120 -64 130 -76 6 -8 17 -14 23 -14
13 0 79 -54 167 -138 l66 -62 41 30 c23 16 44 30 47 30 3 0 11 5 18 10 21 18
159 113 224 155 34 22 62 44 63 48 1 28 -333 324 -390 345 -8 3 -28 16 -45 28
-78 58 -361 180 -463 199 -9 2 -17 4 -17 5 0 1 -8 3 -19 5 -10 2 -39 8 -65 14
-25 6 -62 13 -81 15 -19 3 -46 8 -60 11 -26 7 -375 16 -382 11z"/>
<path d="M2606 4242 c-2 -2 -19 -6 -38 -9 -18 -3 -69 -16 -113 -30 -294 -93
-525 -307 -638 -593 -83 -211 -86 -489 -7 -690 61 -157 135 -259 289 -400 73
-67 250 -154 369 -181 26 -6 56 -13 67 -16 11 -3 85 -7 164 -8 121 -2 158 2
230 20 126 32 210 68 326 138 42 26 112 85 172 144 165 167 268 404 278 639
l3 61 -82 -3 c-118 -4 -437 -18 -656 -30 -58 -2 -111 -5 -117 -4 -7 0 -19 0
-25 0 -7 1 -32 -1 -55 -3 -45 -4 -53 6 -33 41 10 17 52 112 137 312 25 58 53
123 63 145 72 159 140 320 140 331 0 7 4 14 8 16 5 2 12 15 16 30 6 25 2 29
-30 43 -20 8 -46 17 -58 19 -11 3 -46 10 -76 17 -50 11 -325 20 -334 11z"/>
</g>
</svg>
